<?xml version="1.0" standalone="no"?>
<!DOCTYPE svg PUBLIC "-//W3C//DTD SVG 20010904//EN"
 "http://www.w3.org/TR/2001/REC-SVG-20010904/DTD/svg10.dtd">
<svg version="1.0" xmlns="http://www.w3.org/2000/svg"
 width="96.000000pt" height="96.000000pt" viewBox="0 0 96.000000 96.000000"
 preserveAspectRatio="xMidYMid meet">
<metadata>
Created by potrace 1.15, written by Peter Selinger 2001-2017
</metadata>
<g transform="translate(0.000000,96.000000) scale(0.100000,-0.100000)"
fill="#000000" stroke="none">
<path d="M265 827 c-60 -24 -74 -38 -109 -109 -38 -77 -46 -139 -25 -181 6
-12 27 -38 46 -58 32 -34 33 -37 24 -80 -33 -146 -33 -146 -19 -203 11 -48 16
-56 35 -56 27 0 29 12 7 35 -12 12 -15 28 -11 60 2 25 1 42 -4 39 -14 -8 -11
14 6 46 29 57 37 83 22 77 -10 -4 -12 3 -9 25 3 21 9 28 19 24 8 -3 17 -6 19
-6 2 0 4 -14 4 -31 0 -19 4 -28 11 -23 6 3 10 -1 9 -12 -1 -11 -1 -32 0 -49
l2 -30 10 29 c8 21 13 25 19 15 12 -19 11 -62 -1 -54 -6 3 -13 -2 -17 -11 -6
-16 -7 -16 -14 2 -6 18 -7 17 -17 -6 -6 -14 -14 -34 -17 -45 -5 -14 -9 -16
-12 -7 -3 8 2 30 11 51 13 27 14 43 8 61 l-10 25 -7 -30 c-3 -16 -11 -51 -17
-76 -10 -42 -9 -49 12 -77 18 -25 31 -32 56 -32 21 0 37 6 43 18 10 16 10 16
11 0 0 -17 20 -18 275 -18 l275 0 0 73 0 73 -60 59 c-36 36 -60 68 -60 81 0
12 -7 27 -15 34 -8 7 -15 19 -15 27 0 8 -16 35 -35 60 -19 25 -35 51 -35 58 0
7 -14 42 -30 78 -17 37 -30 73 -30 80 0 27 -40 66 -68 67 -15 0 -79 2 -142 5
-77 3 -125 0 -145 -8z m59 -184 c83 -77 100 -125 61 -171 -14 -17 -21 -32 -15
-34 5 -1 -6 -20 -25 -41 l-35 -38 0 30 c0 29 -38 71 -65 71 -6 0 -20 9 -29 19
-17 19 -17 19 40 16 33 -1 70 3 88 11 24 10 26 13 11 14 -12 0 -26 -5 -32 -11
-13 -13 -103 23 -103 41 0 21 21 50 36 50 11 0 14 8 12 28 -3 25 -7 27 -58 32
-49 4 -53 6 -35 17 11 7 38 13 59 13 33 0 47 -8 90 -47z"/>
</g>
</svg>
